<svg height="32" width="32" version="1.1" id="Layer_1" xmlns="http://www.w3.org/2000/svg" xmlns:xlink="http://www.w3.org/1999/xlink" viewBox="0 0 512 512" xml:space="preserve" fill="#000000">

<g id="SVGRepo_bgCarrier" stroke-width="0"></g>

<g id="SVGRepo_tracerCarrier" stroke-linecap="round" stroke-linejoin="round"></g>

<g id="SVGRepo_iconCarrier"> <g transform="translate(1 1)"> <path style="fill:#FD9808;" d="M212.333,400.067c0-56.32-46.08-102.4-102.4-102.4s-102.4,46.08-102.4,102.4 s46.08,102.4,102.4,102.4S212.333,456.387,212.333,400.067"></path> <path style="fill:#FFDD09;" d="M186.733,400.067c0-56.32-40.107-102.4-89.6-102.4s-89.6,46.08-89.6,102.4s40.107,102.4,89.6,102.4 S186.733,456.387,186.733,400.067"></path> <path style="fill:#FFFFFF;" d="M109.933,297.667c2.56,0,4.267,0,6.827,0c-46.933,4.267-83.627,47.787-83.627,102.4 s36.693,98.133,83.627,102.4c-2.56,0-4.267,0-6.827,0c-56.32,0-102.4-46.08-102.4-102.4S53.613,297.667,109.933,297.667"></path> <path style="fill:#FD9808;" d="M357.4,109.933c0-56.32-46.08-102.4-102.4-102.4s-102.4,46.08-102.4,102.4s46.08,102.4,102.4,102.4 S357.4,166.253,357.4,109.933"></path> <path style="fill:#FFDD09;" d="M331.8,109.933c0-56.32-40.107-102.4-89.6-102.4s-89.6,46.08-89.6,102.4s40.107,102.4,89.6,102.4 S331.8,166.253,331.8,109.933"></path> <path style="fill:#FFFFFF;" d="M255,7.533c2.56,0,4.267,0,6.827,0C214.893,11.8,178.2,55.32,178.2,109.933 s36.693,98.133,83.627,102.4c-2.56,0-4.267,0-6.827,0c-56.32,0-102.4-46.08-102.4-102.4S198.68,7.533,255,7.533"></path> <path style="fill:#FD9808;" d="M502.467,400.067c0-56.32-46.08-102.4-102.4-102.4s-102.4,46.08-102.4,102.4 s46.08,102.4,102.4,102.4S502.467,456.387,502.467,400.067"></path> <path style="fill:#FFDD09;" d="M476.867,400.067c0-56.32-40.107-102.4-89.6-102.4s-89.6,46.08-89.6,102.4s40.107,102.4,89.6,102.4 S476.867,456.387,476.867,400.067"></path> <path style="fill:#FFFFFF;" d="M400.067,297.667c2.56,0,4.267,0,6.827,0c-46.933,3.413-83.627,47.787-83.627,102.4 s36.693,98.133,83.627,102.4c-2.56,0-4.267,0-6.827,0c-56.32,0-102.4-46.08-102.4-102.4S343.747,297.667,400.067,297.667"></path> <path d="M109.933,476.867c-5.12,0-8.533-3.413-8.533-8.533V331.8c0-5.12,3.413-8.533,8.533-8.533s8.533,3.413,8.533,8.533v136.533 C118.467,473.453,115.053,476.867,109.933,476.867z"></path> <path d="M109.933,465.773c-11.947,0-23.04-5.973-32.427-17.067c-2.56-3.413-2.56-9.387,1.707-11.947 c3.413-2.56,9.387-2.56,11.947,1.707c5.973,7.68,11.947,11.093,18.773,11.093c11.947,0,25.6-7.68,25.6-19.627 c0-11.947-13.653-19.627-25.6-19.627c-20.48,0-42.667-14.507-42.667-36.693c0-22.187,22.187-36.693,42.667-36.693 c16.213,0,26.453,10.24,32.427,17.067c2.56,3.413,2.56,9.387-1.707,11.947c-3.413,2.56-9.387,2.56-11.947-1.707 c-5.973-7.68-11.947-11.093-18.773-11.093c-11.947,0-25.6,7.68-25.6,19.627c0,11.947,13.653,19.627,25.6,19.627 c20.48,0,42.667,14.507,42.667,36.693C152.6,451.267,130.413,465.773,109.933,465.773z"></path> <path d="M84.333,468.333c-5.12,0-8.533-3.413-8.533-8.533v-34.133c0-5.12,3.413-8.533,8.533-8.533s8.533,3.413,8.533,8.533V459.8 C92.867,464.92,89.453,468.333,84.333,468.333z"></path> <path d="M135.533,383c-5.12,0-8.533-3.413-8.533-8.533v-34.133c0-5.12,3.413-8.533,8.533-8.533s8.533,3.413,8.533,8.533v34.133 C144.067,379.587,140.653,383,135.533,383z"></path> <path d="M109.933,511C48.493,511-1,461.507-1,400.067s49.493-110.933,110.933-110.933s110.933,49.493,110.933,110.933 S171.373,511,109.933,511z M109.933,306.2c-52.053,0-93.867,41.813-93.867,93.867s41.813,93.867,93.867,93.867 S203.8,452.12,203.8,400.067S161.987,306.2,109.933,306.2z"></path> <path d="M400.067,476.867c-5.12,0-8.533-3.413-8.533-8.533V331.8c0-5.12,3.413-8.533,8.533-8.533s8.533,3.413,8.533,8.533v136.533 C408.6,473.453,405.187,476.867,400.067,476.867z"></path> <path d="M400.067,465.773c-11.947,0-23.04-5.973-32.427-17.067c-2.56-3.413-2.56-9.387,1.707-11.947 c3.413-2.56,9.387-2.56,11.947,1.707c5.973,7.68,11.947,11.093,18.773,11.093c11.947,0,25.6-7.68,25.6-19.627 c0-11.947-13.653-19.627-25.6-19.627c-20.48,0-42.667-14.507-42.667-36.693c0-22.187,22.187-36.693,42.667-36.693 c16.213,0,26.453,10.24,32.427,17.067c2.56,3.413,2.56,9.387-1.707,11.947c-3.413,2.56-9.387,2.56-11.947-1.707 c-5.973-7.68-11.947-11.093-18.773-11.093c-11.947,0-25.6,7.68-25.6,19.627c0,11.947,13.653,19.627,25.6,19.627 c20.48,0,42.667,14.507,42.667,36.693C442.733,451.267,420.547,465.773,400.067,465.773z"></path> <path d="M374.467,468.333c-5.12,0-8.533-3.413-8.533-8.533v-34.133c0-5.12,3.413-8.533,8.533-8.533c5.12,0,8.533,3.413,8.533,8.533 V459.8C383,464.92,379.587,468.333,374.467,468.333z"></path> <path d="M425.667,383c-5.12,0-8.533-3.413-8.533-8.533v-34.133c0-5.12,3.413-8.533,8.533-8.533s8.533,3.413,8.533,8.533v34.133 C434.2,379.587,430.787,383,425.667,383z"></path> <path d="M400.067,511c-61.44,0-110.933-49.493-110.933-110.933s49.493-110.933,110.933-110.933S511,338.627,511,400.067 S461.507,511,400.067,511z M400.067,306.2c-52.053,0-93.867,41.813-93.867,93.867s41.813,93.867,93.867,93.867 s93.867-41.813,93.867-93.867S452.12,306.2,400.067,306.2z"></path> <path d="M255,220.867c-61.44,0-110.933-49.493-110.933-110.933S193.56-1,255-1s110.933,49.493,110.933,110.933 S316.44,220.867,255,220.867z M255,16.067c-52.053,0-93.867,41.813-93.867,93.867S202.947,203.8,255,203.8 s93.867-41.813,93.867-93.867S307.053,16.067,255,16.067z"></path> <path d="M229.4,161.133c-5.12,0-8.533-3.413-8.533-8.533V92.867c0-5.12,3.413-8.533,8.533-8.533c5.12,0,8.533,3.413,8.533,8.533 V152.6C237.933,157.72,234.52,161.133,229.4,161.133z"></path> <path d="M280.6,161.133c-5.12,0-8.533-3.413-8.533-8.533V92.867c0-5.12,3.413-8.533,8.533-8.533s8.533,3.413,8.533,8.533V152.6 C289.133,157.72,285.72,161.133,280.6,161.133z"></path> <path d="M306.2,127c-2.56,0-4.267-0.853-5.973-2.56L255,79.213l-45.227,45.227c-3.413,3.413-8.533,3.413-11.947,0 s-3.413-8.533,0-11.947l51.2-51.2c3.413-3.413,8.533-3.413,11.947,0l51.2,51.2c3.413,3.413,3.413,8.533,0,11.947 C310.467,126.147,308.76,127,306.2,127z"></path> <path d="M428.227,310.467c-0.853,0-0.853-0.853-1.707-0.853c-4.267-0.853-7.68-5.12-6.827-9.387 c4.267-14.507,5.973-29.867,5.973-44.373c0-55.467-26.453-105.813-73.387-138.24c-4.267-2.56-5.12-7.68-1.707-11.947 c2.56-4.267,7.68-5.12,11.947-1.707c51.2,35.84,80.213,91.307,80.213,151.893c0,16.213-2.56,32.427-6.827,48.64 C435.053,307.907,431.64,310.467,428.227,310.467z"></path> <path d="M255,442.733c-16.213,0-32.427-2.56-48.64-6.827c-4.267-0.853-6.827-5.973-5.973-10.24 c0.853-4.267,5.973-6.827,10.24-5.973c29.867,7.68,58.88,7.68,88.747,0c4.267-0.853,9.387,1.707,10.24,5.973 c0.853,4.267-1.707,9.387-5.973,10.24C287.427,440.173,271.213,442.733,255,442.733z"></path> <path d="M81.773,310.467c-3.413,0-6.827-2.56-8.533-5.973c-3.413-17.067-5.973-33.28-5.973-49.493 c0-60.587,29.013-116.053,80.213-151.893c4.267-2.56,9.387-1.707,11.947,1.707c2.56,4.267,1.707,9.387-1.707,11.947 C110.787,149.187,84.333,199.533,84.333,255c0,14.507,1.707,29.867,5.973,44.373c0.853,4.267-1.707,9.387-5.973,10.24 C83.48,309.613,82.627,310.467,81.773,310.467z"></path> </g> </g>

</svg>